<svg width="149" height="37" viewBox="0 0 149 37" fill="none" xmlns="http://www.w3.org/2000/svg">
<path d="M25 30H142.474L149 37L25 33.8621V30Z" fill="#D6AD44"/>
<path d="M7.28867 4.736C7.28867 3.176 7.34067 3.124 9.88867 3.02C10.0447 3.02 10.1487 2.916 10.1487 2.76C10.1487 2.63 10.0707 2.5 9.88867 2.5C9.78467 2.5 9.60267 2.5 9.05667 2.526C8.04267 2.578 6.63867 2.63 5.59867 2.63C4.55867 2.63 3.15467 2.578 2.14067 2.526C1.59467 2.5 1.41267 2.5 1.30867 2.5C1.12667 2.5 1.04867 2.63 1.04867 2.76C1.04867 2.916 1.15267 3.02 1.30867 3.02C3.85667 3.124 3.90867 3.176 3.90867 4.736V19.764C3.90867 21.324 3.85667 21.376 1.30867 21.48C1.15267 21.48 1.04867 21.584 1.04867 21.74C1.04867 21.87 1.12667 22 1.30867 22C1.41267 22 1.59467 22 2.14067 21.974C3.15467 21.922 4.55867 21.87 5.59867 21.87C6.63867 21.87 8.04267 21.922 9.05667 21.974C9.60267 22 9.78467 22 9.88867 22C10.0707 22 10.1487 21.87 10.1487 21.74C10.1487 21.584 10.0447 21.48 9.88867 21.48C7.34067 21.376 7.28867 21.324 7.28867 19.764V4.736ZM22.6526 2.24C18.0246 2.24 12.3566 6.244 12.3566 12.978C12.3566 18.23 16.4906 22.26 22.0806 22.26C24.2646 22.26 25.9286 21.662 27.0986 21.22C27.7226 20.986 28.1906 20.856 28.5286 20.856C28.8146 20.856 29.0226 20.96 29.2826 21.558C29.3346 21.688 29.4126 21.714 29.4906 21.714C29.5946 21.714 29.6726 21.636 29.6726 21.506C29.6726 21.402 29.6466 21.116 29.5686 20.544C29.4646 19.738 29.4386 19.01 29.4386 18.126C29.4386 17.32 29.4646 16.358 29.4906 15.786C29.5166 15.396 29.5166 15.214 29.5166 15.162C29.5166 15.032 29.4126 14.954 29.3086 14.954C29.2306 14.954 29.1266 15.006 29.1006 15.136C28.0086 20.128 25.6166 21.792 22.7826 21.792C19.1946 21.792 16.4126 17.814 16.4126 12.302C16.4126 7.674 18.8046 2.708 22.5226 2.708C25.3566 2.708 27.6706 4.346 28.7366 8.974C28.7626 9.13 28.8666 9.182 28.9706 9.182C29.1006 9.182 29.1786 9.104 29.1786 8.948C29.1266 7.986 29.1006 7.154 29.1006 6.426C29.1006 5.204 29.2046 4.242 29.3086 3.644C29.3866 3.228 29.4126 2.994 29.4126 2.942C29.4126 2.812 29.3086 2.76 29.2046 2.76C29.1006 2.76 29.0486 2.812 28.9966 2.942C28.8926 3.254 28.7886 3.41 28.3726 3.41C28.0346 3.41 27.6446 3.28 27.1506 3.072C25.7726 2.578 24.4986 2.24 22.6526 2.24ZM41.0726 2.708C41.0206 2.578 40.9426 2.5 40.8386 2.5C40.7606 2.5 40.6826 2.578 40.6306 2.708L35.1706 17.034C33.8186 20.57 33.2206 21.506 31.4006 21.506C31.2186 21.506 31.1406 21.636 31.1406 21.766C31.1406 21.896 31.2186 22 31.4006 22C31.5566 22 32.0766 21.974 32.6226 21.922C33.2726 21.87 33.5066 21.87 33.9746 21.87C34.5986 21.87 35.1966 21.896 35.6906 21.922C36.4706 21.974 37.0686 22 37.3286 22C37.5106 22 37.5886 21.87 37.5886 21.714C37.5886 21.584 37.5106 21.454 37.3286 21.454C37.1986 21.454 36.7826 21.428 36.2626 21.376C35.3526 21.298 34.9626 20.908 34.9626 20.154C34.9626 19.608 35.1186 18.932 35.5866 17.71L36.7826 14.512H42.3466L43.7506 18.36C44.0366 19.14 44.1926 19.712 44.1926 20.154C44.1926 20.882 43.7506 21.272 42.7626 21.376C42.2166 21.428 41.6186 21.48 41.0466 21.48C40.8906 21.48 40.7866 21.61 40.7866 21.74C40.7866 21.87 40.8906 22 41.0466 22C41.3586 22 41.5146 22 42.1386 21.974C43.1786 21.922 44.9726 21.87 46.0646 21.87C46.7926 21.87 47.8586 21.896 48.7686 21.948C49.4186 22 49.9386 22 50.2246 22C50.4326 22 50.5106 21.87 50.5106 21.74C50.5106 21.61 50.4326 21.506 50.2246 21.48C48.8726 21.298 48.4826 20.908 47.4686 18.386L41.0726 2.708ZM37.0166 13.94L39.6166 7.05L42.1386 13.94H37.0166ZM68.1417 16.462L58.3137 3.202C58.0017 2.76 57.7417 2.5 57.1437 2.5H51.6837C51.5797 2.5 51.4237 2.63 51.4237 2.76C51.4237 2.89 51.5277 3.02 51.6837 3.02C54.4917 3.02 54.8037 3.124 54.8037 5.438V17.606C54.8037 20.7 53.7897 21.35 51.6837 21.48C51.5277 21.48 51.4237 21.61 51.4237 21.74C51.4237 21.87 51.5277 22 51.6837 22C51.7877 22 51.8917 22 52.2557 21.974C53.2697 21.896 54.2317 21.87 55.1157 21.87C56.1297 21.87 57.2477 21.896 58.6257 21.974C59.1717 22 59.3797 22 59.4577 22C59.6137 22 59.6917 21.87 59.6917 21.74C59.6917 21.61 59.6137 21.48 59.4577 21.48C55.9997 21.35 55.4537 20.7 55.4537 17.606V5.152L67.9857 22C68.0897 22.156 68.2457 22.234 68.4017 22.234C68.5837 22.234 68.7917 22.182 68.7917 21.714V6.816C68.7917 4.034 69.8317 3.15 71.9117 3.046C72.0677 3.046 72.1457 2.916 72.1457 2.786C72.1457 2.656 72.0677 2.5 71.9117 2.5C71.8077 2.5 71.5217 2.5 71.1837 2.526C69.9357 2.604 69.2077 2.63 68.4797 2.63C67.5957 2.63 66.4257 2.604 65.0217 2.526C64.4237 2.5 64.1377 2.5 64.0337 2.5C63.8777 2.5 63.7737 2.656 63.7737 2.786C63.7737 2.916 63.8777 3.046 64.0337 3.046C66.8417 3.124 68.1417 4.034 68.1417 6.816V16.462ZM90.6885 16.462L80.8605 3.202C80.5485 2.76 80.2885 2.5 79.6905 2.5H74.2305C74.1265 2.5 73.9705 2.63 73.9705 2.76C73.9705 2.89 74.0745 3.02 74.2305 3.02C77.0385 3.02 77.3505 3.124 77.3505 5.438V17.606C77.3505 20.7 76.3365 21.35 74.2305 21.48C74.0745 21.48 73.9705 21.61 73.9705 21.74C73.9705 21.87 74.0745 22 74.2305 22C74.3345 22 74.4385 22 74.8025 21.974C75.8165 21.896 76.7785 21.87 77.6625 21.87C78.6765 21.87 79.7945 21.896 81.1725 21.974C81.7185 22 81.9265 22 82.0045 22C82.1605 22 82.2385 21.87 82.2385 21.74C82.2385 21.61 82.1605 21.48 82.0045 21.48C78.5465 21.35 78.0005 20.7 78.0005 17.606V5.152L90.5325 22C90.6365 22.156 90.7925 22.234 90.9485 22.234C91.1305 22.234 91.3385 22.182 91.3385 21.714V6.816C91.3385 4.034 92.3785 3.15 94.4585 3.046C94.6145 3.046 94.6925 2.916 94.6925 2.786C94.6925 2.656 94.6145 2.5 94.4585 2.5C94.3545 2.5 94.0685 2.5 93.7305 2.526C92.4825 2.604 91.7545 2.63 91.0265 2.63C90.1425 2.63 88.9725 2.604 87.5685 2.526C86.9705 2.5 86.6845 2.5 86.5805 2.5C86.4245 2.5 86.3205 2.656 86.3205 2.786C86.3205 2.916 86.4245 3.046 86.5805 3.046C89.3885 3.124 90.6885 4.034 90.6885 6.816V16.462ZM106.319 12.302C104.993 9.728 104.187 8.09 103.121 5.75C102.809 5.1 102.627 4.58 102.627 4.19C102.627 3.384 103.095 3.176 105.227 3.02C105.435 2.994 105.513 2.89 105.513 2.76C105.513 2.63 105.435 2.5 105.227 2.5C105.071 2.5 104.811 2.5 103.407 2.578C102.731 2.604 101.301 2.656 100.703 2.656C99.7674 2.656 98.0774 2.604 96.5174 2.526C96.2054 2.5 95.9974 2.5 95.8934 2.5C95.7114 2.5 95.6074 2.656 95.6074 2.786C95.6074 2.916 95.7114 3.046 95.8934 3.046C97.2194 3.046 98.0514 3.748 99.5854 6.322C100.625 8.09 101.873 10.326 103.251 12.952V19.764C103.251 21.324 103.199 21.376 100.651 21.48C100.495 21.48 100.391 21.584 100.391 21.74C100.391 21.87 100.469 22 100.651 22C100.755 22 100.937 22 101.483 21.974C102.497 21.922 103.901 21.87 104.941 21.87C105.981 21.87 107.385 21.922 108.399 21.974C108.945 22 109.127 22 109.231 22C109.413 22 109.491 21.87 109.491 21.74C109.491 21.584 109.387 21.48 109.231 21.48C106.683 21.376 106.631 21.324 106.631 19.764V13.108L109.595 7.076C110.895 4.45 111.883 3.15 114.015 3.02C114.197 3.02 114.301 2.89 114.301 2.76C114.301 2.63 114.197 2.5 114.041 2.5C113.885 2.5 113.651 2.5 113.287 2.526C112.325 2.604 111.441 2.63 110.635 2.63C109.855 2.63 109.101 2.604 108.477 2.552C108.165 2.526 107.775 2.5 107.567 2.5C107.385 2.5 107.307 2.63 107.307 2.76C107.307 2.89 107.385 2.994 107.567 3.02C109.179 3.176 109.673 3.696 109.673 4.606C109.673 5.152 109.439 5.854 108.841 7.102L106.319 12.302ZM125.104 2.24C120.476 2.24 114.808 6.244 114.808 12.978C114.808 18.23 118.942 22.26 124.532 22.26C126.716 22.26 128.38 21.662 129.55 21.22C130.174 20.986 130.642 20.856 130.98 20.856C131.266 20.856 131.474 20.96 131.734 21.558C131.786 21.688 131.864 21.714 131.942 21.714C132.046 21.714 132.124 21.636 132.124 21.506C132.124 21.402 132.098 21.116 132.02 20.544C131.916 19.738 131.89 19.01 131.89 18.126C131.89 17.32 131.916 16.358 131.942 15.786C131.968 15.396 131.968 15.214 131.968 15.162C131.968 15.032 131.864 14.954 131.76 14.954C131.682 14.954 131.578 15.006 131.552 15.136C130.46 20.128 128.068 21.792 125.234 21.792C121.646 21.792 118.864 17.814 118.864 12.302C118.864 7.674 121.256 2.708 124.974 2.708C127.808 2.708 130.122 4.346 131.188 8.974C131.214 9.13 131.318 9.182 131.422 9.182C131.552 9.182 131.63 9.104 131.63 8.948C131.578 7.986 131.552 7.154 131.552 6.426C131.552 5.204 131.656 4.242 131.76 3.644C131.838 3.228 131.864 2.994 131.864 2.942C131.864 2.812 131.76 2.76 131.656 2.76C131.552 2.76 131.5 2.812 131.448 2.942C131.344 3.254 131.24 3.41 130.824 3.41C130.486 3.41 130.096 3.28 129.602 3.072C128.224 2.578 126.95 2.24 125.104 2.24Z" fill="white"/>
</svg>
